<?xml version="1.0" encoding="utf-8"?>
<!-- Generator: Adobe Illustrator 21.0.0, SVG Export Plug-In . SVG Version: 6.00 Build 0)  -->
<svg version="1.1" id="图层_1" xmlns="http://www.w3.org/2000/svg" xmlns:xlink="http://www.w3.org/1999/xlink" x="0px" y="0px"
	 viewBox="0 0 128 128" style="enable-background:new 0 0 128 128;" xml:space="preserve">
<style type="text/css">
	.st0{display:none;opacity:0.4;}
	.st1{display:inline;opacity:0.5;fill:none;stroke:#F0B90B;stroke-width:2;enable-background:new    ;}
	.st2{fill:#202732;stroke:#F0B90B;stroke-width:3;}
	.st3{fill:none;stroke:#FFFFFF;stroke-width:3;stroke-linecap:square;}
	.st4{opacity:0.4;}
	.st5{opacity:0.5;fill:none;stroke:#F0B90B;stroke-width:2;enable-background:new    ;}
</style>
<title>1_hover</title>
<desc>Created with Sketch.</desc>
<g id="teste-home">
	<g id="text-net-homepage" transform="translate(-513.000000, -487.000000)">
		<g id="分组" transform="translate(501.000000, 487.000000)">
			<g id="_x31__x5F_hover" transform="translate(12.000000, 0.000000)">
				
					<g id="分组-6" transform="translate(63.639610, 63.639610) rotate(-315.000000) translate(-63.639610, -63.639610) translate(18.639610, 18.639610)" class="st0">
					<path id="形状" class="st1" d="M1.4,24.7L25,1.1H1.4V24.7z"/>
					<path id="形状-copy-2" class="st1" d="M1.4,65.5L25,89.1H1.4V65.5z"/>
					<path id="形状-copy" class="st1" d="M89.4,24.7L65.8,1.1h23.6V24.7z"/>
					<path id="形状-copy-3" class="st1" d="M89.4,65.5L65.8,89.1h23.6V65.5z"/>
				</g>
				<g id="创建钱包" transform="translate(44.000000, 44.000000)">
					<path id="矩形-copy-3" class="st2" d="M1.7,8.8v28.9h31.1V2.2L1.7,8.8z"/>
					<rect id="矩形" x="1.7" y="9.9" class="st2" width="37" height="28.8"/>
					<path id="直线-5" class="st3" d="M13.2,23.9h15"/>
					<path id="直线-6" class="st3" d="M20.7,16.4v15"/>
				</g>
			</g>
		</g>
	</g>
</g>
<g id="分组-6_1_" transform="translate(64.000000, 64.000000) rotate(-315.000000) translate(-64.000000, -64.000000) translate(19.000000, 19.000000)" class="st4">
	<path id="形状_2_" class="st5" d="M24.5,1.1H0.9v23.6"/>
	<path id="形状-copy-2_1_" class="st5" d="M24.5,89.1H0.9V65.5"/>
	<path id="形状-copy_1_" class="st5" d="M65.3,1.1h23.6v23.6"/>
	<path id="形状-copy-3_1_" class="st5" d="M65.3,89.1h23.6V65.5"/>
</g>
</svg>
