<?xml version="1.0" encoding="utf-8"?>
<!-- Generator: Adobe Illustrator 21.0.0, SVG Export Plug-In . SVG Version: 6.00 Build 0)  -->
<svg version="1.1" id="图层_1" xmlns="http://www.w3.org/2000/svg" xmlns:xlink="http://www.w3.org/1999/xlink" x="0px" y="0px"
	 viewBox="0 0 128 128" style="enable-background:new 0 0 128 128;" xml:space="preserve">
<style type="text/css">
	.st0{display:none;opacity:0.4;}
	.st1{display:inline;opacity:0.5;fill:none;stroke:#F0B90B;stroke-width:2;enable-background:new    ;}
	.st2{fill:none;stroke:#F0B90B;stroke-width:3;}
	.st3{fill:none;stroke:#F0B90B;stroke-width:3;stroke-linecap:square;}
	.st4{fill:#1A1F29;stroke:#FFFFFF;stroke-width:2;}
	.st5{fill:#FFFFFF;}
	.st6{opacity:0.4;}
	.st7{opacity:0.5;fill:none;stroke:#F0B90B;stroke-width:2;enable-background:new    ;}
</style>
<title>3_hover</title>
<desc>Created with Sketch.</desc>
<g id="teste-home">
	<g id="text-net-homepage" transform="translate(-1276.000000, -487.000000)">
		<g id="分组-copy-2" transform="translate(1276.000000, 487.000000)">
			<g id="_x33__x5F_hover">
				
					<g id="分组-6" transform="translate(64.000000, 64.000000) rotate(-315.000000) translate(-64.000000, -64.000000) translate(19.000000, 19.000000)" class="st0">
					<path id="形状" class="st1" d="M1,24.6L24.6,1H1V24.6z"/>
					<path id="形状-copy-2" class="st1" d="M1,65.4L24.6,89H1V65.4z"/>
					<path id="形状-copy" class="st1" d="M89,24.6L65.4,1H89V24.6z"/>
					<path id="形状-copy-3" class="st1" d="M89,65.4L65.4,89H89V65.4z"/>
				</g>
				<g id="分组-2" transform="translate(43.000000, 44.000000)">
					<path id="矩形" class="st2" d="M1.5,2.6v31.6l13.3,4.2L29,33.7l11.9,4.2V9.1L28.9,1.8L14.8,10L1.5,2.6z"/>
					<path id="直线" class="st3" d="M14.7,9.4v28.2"/>
					<path id="直线-copy" class="st3" d="M28.8,2.4v30.6"/>
					<path id="椭圆形" class="st4" d="M14.7,30.3c4.3-4,6.5-7.2,6.5-9.6c0-3.6-2.9-6.6-6.5-6.6s-6.5,2.9-6.5,6.6
						C8.2,23.1,10.4,26.3,14.7,30.3z"/>
					<circle id="椭圆形_1_" class="st5" cx="14.7" cy="20.6" r="1.8"/>
				</g>
			</g>
		</g>
	</g>
</g>
<g id="分组-6_1_" transform="translate(64.000000, 64.000000) rotate(-315.000000) translate(-64.000000, -64.000000) translate(19.000000, 19.000000)" class="st6">
	<path id="形状_2_" class="st7" d="M24.8,0.9H1.2v23.6"/>
	<path id="形状-copy-2_1_" class="st7" d="M24.8,88.9H1.2V65.4"/>
	<path id="形状-copy_1_" class="st7" d="M65.6,0.9h23.6v23.6"/>
	<path id="形状-copy-3_1_" class="st7" d="M65.6,88.9h23.6V65.4"/>
</g>
</svg>
