<?xml version="1.0" encoding="utf-8"?>
<!-- Generator: Adobe Illustrator 21.0.0, SVG Export Plug-In . SVG Version: 6.00 Build 0)  -->
<svg version="1.1" id="图层_1" xmlns="http://www.w3.org/2000/svg" xmlns:xlink="http://www.w3.org/1999/xlink" x="0px" y="0px"
	 viewBox="0 0 100 100" style="enable-background:new 0 0 100 100;" xml:space="preserve">
<style type="text/css">
	.st0{display:none;opacity:0.4;}
	.st1{display:inline;opacity:0.5;fill:none;stroke:#848E9C;stroke-width:2;enable-background:new    ;}
	.st2{fill:#1F2530;stroke:#848E9C;stroke-width:2;}
	.st3{fill:none;stroke:#848E9C;stroke-width:2;stroke-linecap:square;}
	.st4{fill:#1A1F29;stroke:#F0B90B;stroke-width:2;}
	.st5{fill:#F0B90B;}
	.st6{fill:#848E9C;}
	.st7{opacity:0.4;}
	.st8{opacity:0.5;fill:none;stroke:#848E9C;stroke-width:2;enable-background:new    ;}
</style>
<title>5_default</title>
<desc>Created with Sketch.</desc>
<g id="teste-home">
	<g id="text-net-homepage" transform="translate(-910.000000, -703.000000)">
		<g id="分组-copy-4" transform="translate(855.000000, 684.000000)">
			<g id="_x35__x5F_default" transform="translate(55.000000, 19.000000)">
				
					<g id="分组-6" transform="translate(50.000000, 50.000000) rotate(-315.000000) translate(-50.000000, -50.000000) translate(15.000000, 15.000000)" class="st0">
					<path id="形状" class="st1" d="M1,18.6L18.6,1H1V18.6z"/>
					<path id="形状-copy-2" class="st1" d="M1,51.4L18.6,69H1V51.4z"/>
					<path id="形状-copy" class="st1" d="M69,18.6L51.4,1H69V18.6z"/>
					<path id="形状-copy-3" class="st1" d="M69,51.4L51.4,69H69V51.4z"/>
				</g>
				<g id="分组-5" transform="translate(31.000000, 35.000000)">
					<rect id="矩形" x="1" y="1" class="st2" width="35" height="30"/>
					<path id="直线-3" class="st3" d="M2,9.5h34"/>
					<path id="椭圆形" class="st4" d="M12.9,22.8c3.9-3.6,5.9-6.5,5.9-8.7c0-3.3-2.6-6-5.9-6S7,10.7,7,14
						C7,16.2,9,19.1,12.9,22.8z"/>
					<circle id="椭圆形_1_" class="st5" cx="13" cy="14" r="2"/>
					<rect id="矩形_1_" x="26" y="15" class="st6" width="6" height="3"/>
					<rect id="矩形-copy-2" x="21" y="21" class="st6" width="11" height="2"/>
				</g>
			</g>
		</g>
	</g>
</g>
<g id="分组-6_1_" transform="translate(50.000000, 50.000000) rotate(-315.000000) translate(-50.000000, -50.000000) translate(15.000000, 15.000000)" class="st7">
	<path id="形状_2_" class="st8" d="M18.6,1H1v17.6"/>
	<path id="形状-copy-2_1_" class="st8" d="M18.6,69H1V51.4"/>
	<path id="形状-copy_1_" class="st8" d="M51.4,1H69v17.6"/>
	<path id="形状-copy-3_1_" class="st8" d="M51.4,69H69V51.4"/>
</g>
</svg>
