<?xml version="1.0" encoding="utf-8"?>
<!-- Generator: Adobe Illustrator 21.0.0, SVG Export Plug-In . SVG Version: 6.00 Build 0)  -->
<svg version="1.1" id="图层_1" xmlns="http://www.w3.org/2000/svg" xmlns:xlink="http://www.w3.org/1999/xlink" x="0px" y="0px"
	 viewBox="0 0 100 100" style="enable-background:new 0 0 100 100;" xml:space="preserve">
<style type="text/css">
	.st0{display:none;opacity:0.4;}
	.st1{display:inline;opacity:0.5;fill:none;stroke:#848E9C;stroke-width:2;enable-background:new    ;}
	.st2{fill:#181D26;stroke:#848E9C;stroke-width:2;}
	.st3{fill:none;stroke:#F0B90B;stroke-width:1.6;stroke-linecap:square;}
	.st4{fill:#181D26;stroke:#F0B90B;stroke-width:1.5;}
	.st5{fill:#F0B90B;}
	.st6{opacity:0.4;}
	.st7{opacity:0.5;fill:none;stroke:#848E9C;stroke-width:2;enable-background:new    ;}
</style>
<title>6_defalut</title>
<desc>Created with Sketch.</desc>
<g id="teste-home">
	<g id="text-net-homepage" transform="translate(-1288.000000, -703.000000)">
		<g id="分组-copy-5" transform="translate(1275.000000, 684.000000)">
			<g id="_x36__x5F_defalut" transform="translate(13.000000, 19.000000)">
				
					<g id="分组-6" transform="translate(50.000000, 50.000000) rotate(-315.000000) translate(-50.000000, -50.000000) translate(15.000000, 15.000000)" class="st0">
					<path id="形状" class="st1" d="M1,18.6L18.6,1H1V18.6z"/>
					<path id="形状-copy-2" class="st1" d="M1,51.4L18.6,69H1V51.4z"/>
					<path id="形状-copy" class="st1" d="M69,18.6L51.4,1H69V18.6z"/>
					<path id="形状-copy-3" class="st1" d="M69,51.4L51.4,69H69V51.4z"/>
				</g>
				<g id="分组-4" transform="translate(33.000000, 31.000000)">
					<path id="矩形" class="st2" d="M1,1v33h29V10.5L21.3,1H1z"/>
					<path id="直线-4" class="st3" d="M6.5,9.5h7"/>
					<path id="直线-4-copy" class="st3" d="M6.5,15.5h11"/>
					<path id="直线-4-copy-2" class="st3" d="M6.5,21.5h11"/>
					<g id="注意" transform="translate(20.000000, 20.000000)">
						<path id="路径" class="st4" d="M7.4,0C3.3,0,0,3.4,0,7.6c0,2.8,1.5,5.3,3.8,6.6C4.9,14.8,2.1,18,2.7,18s7.4-3.2,8.5-3.9
							c2.2-1.3,3.6-3.7,3.6-6.5C14.8,3.4,11.5,0,7.4,0z"/>
						<path id="形状_1_" class="st5" d="M7.1,11.1h1.3v1.3H7.1V11.1z M7,5.1l0.3,5h0.7l0.4-5V3H7V5.1z"/>
					</g>
				</g>
			</g>
		</g>
	</g>
</g>
<g id="分组-6_1_" transform="translate(50.000000, 50.000000) rotate(-315.000000) translate(-50.000000, -50.000000) translate(15.000000, 15.000000)" class="st6">
	<path id="形状_2_" class="st7" d="M18.6,1H1v17.6"/>
	<path id="形状-copy-2_1_" class="st7" d="M18.6,69H1V51.4"/>
	<path id="形状-copy_1_" class="st7" d="M51.4,1H69v17.6"/>
	<path id="形状-copy-3_1_" class="st7" d="M51.4,69H69V51.4"/>
</g>
</svg>
