<?xml version="1.0" encoding="utf-8"?>
<!-- Generator: Adobe Illustrator 21.0.0, SVG Export Plug-In . SVG Version: 6.00 Build 0)  -->
<svg version="1.1" id="图层_1" xmlns="http://www.w3.org/2000/svg" xmlns:xlink="http://www.w3.org/1999/xlink" x="0px" y="0px"
	 viewBox="0 0 128 128" style="enable-background:new 0 0 128 128;" xml:space="preserve">
<style type="text/css">
	.st0{opacity:0.4;}
	.st1{opacity:0.5;fill:none;stroke:#F0B90B;stroke-width:2;enable-background:new    ;}
	.st2{fill:#181D26;stroke:#F0B90B;stroke-width:3;}
	.st3{fill:none;stroke:#FFFFFF;stroke-width:2;stroke-linecap:square;}
	.st4{fill:#181D26;stroke:#FFFFFF;stroke-width:2;}
	.st5{fill:#FFFFFF;}
</style>
<title>6_hover</title>
<desc>Created with Sketch.</desc>
<g id="teste-home">
	<g id="_x36__x5F_hover">
		
			<g id="分组-6" transform="translate(64.000000, 64.000000) rotate(-315.000000) translate(-64.000000, -64.000000) translate(19.000000, 19.000000)" class="st0">
			<path id="形状_2_" class="st1" d="M24.6,1H1v23.6"/>
			<path id="形状-copy-2_1_" class="st1" d="M24.6,89H1V65.4"/>
			<path id="形状-copy_1_" class="st1" d="M65.4,1H89v23.6"/>
			<path id="形状-copy-3_1_" class="st1" d="M65.4,89H89V65.4"/>
		</g>
		<g id="分组-4" transform="translate(44.000000, 42.000000)">
			<path id="矩形" class="st2" d="M1.5,1.5v37h32.4V12.2L24.1,1.5H1.5z"/>
			<path id="直线-4" class="st3" d="M7.4,10.9h8"/>
			<path id="直线-4-copy" class="st3" d="M7.4,17.7H20"/>
			<path id="直线-4-copy-2" class="st3" d="M7.4,24.6H20"/>
			<g id="注意" transform="translate(22.857143, 22.857143)">
				<path id="路径" class="st4" d="M8.5,0C3.8,0,0,3.9,0,8.7c0,3.3,1.7,6.1,4.3,7.6c1.2,0.7-2,4.3-1.2,4.3s8.4-3.7,9.7-4.5
					c2.5-1.5,4.1-4.3,4.1-7.4C16.9,3.9,13.2,0,8.5,0z"/>
				<path id="形状_1_" class="st5" d="M8.1,12.7h1.5v1.5H8.1V12.7z M8,5.8l0.4,5.7h0.9l0.4-5.7V3.4H8V5.8z"/>
			</g>
		</g>
	</g>
</g>
</svg>
