<?xml version="1.0" standalone="no"?><!DOCTYPE svg PUBLIC "-//W3C//DTD SVG 1.1//EN" "http://www.w3.org/Graphics/SVG/1.1/DTD/svg11.dtd"><svg t="1541062928685" class="icon" style="" viewBox="0 0 1531 1024" version="1.1" xmlns="http://www.w3.org/2000/svg" p-id="8158" xmlns:xlink="http://www.w3.org/1999/xlink" width="299.0234375" height="200"><defs><style type="text/css"></style></defs><path d="M304.502782 403.191792v2.627584h36.474879c0.53248-18.051071 15.132671-32.761855 32.841726-32.761855h173.105145c6.8096-10.784768 10.809344-23.515135 10.809344-37.201918 0-32.935935-22.839295-60.483582-53.559294-67.91987-0.387072 1.429504-0.811008 2.84672-1.181696 4.288512-1.540096 3.729408-3.084288 7.46496-5.808128 9.8304-5.455872 4.737024-11.921408 5.566464-18.212863 3.854336-5.09952-0.354304-8.66304-4.435968-12.224512-8.517632-1.61792-3.883008-3.219456-7.76192-2.799615-11.49952H155.742212c-38.727678 0-70.121469 31.322111-70.121469 69.963774 0 38.639614 31.395839 69.963773 70.121469 69.963773h87.140348a32.452607 32.452607 0 0 1 12.818432-2.627584h48.80179zM51.65876 612.433896c-28.530687 0-51.65875 23.078911-51.65875 51.542013s23.128063 51.544062 51.65875 51.544062h170.797049V612.433896h-170.797049zM1331.267541 928.929755v-60.266494h-2.443264c-38.721534 0-70.121469 31.326207-70.121469 69.963773 0 13.905919 4.122624 26.836991 11.137023 37.732351h13.740032c26.310655 0 47.687678-21.284863 47.687678-47.42963zM1461.784528 868.663261h-82.876413v60.266494c0 33.331199-17.301503 62.681085-43.393022 79.659005h126.269435c38.727678 0 70.119421-31.326207 70.119421-69.961726 0-38.637566-31.391743-69.963773-70.119421-69.963773zM1322.979285 222.089207h45.342718c30.040063 0 54.394878-24.299519 54.394878-54.271998s-24.354815-54.274046-54.394878-54.274046h-45.342718c-30.040063 0-54.398974 24.301567-54.398974 54.274046 0.002048 29.972479 24.358911 54.271998 54.398974 54.271998zM259.233792 612.433896h0.841728v103.086075h-0.841728z" fill="#2E3A5A" p-id="8159"></path><path d="M340.975613 405.817328c-0.008192 0.335872-0.047104 0.663552-0.047104 1.00352v30.492671c0 18.515967 14.850047 33.761279 32.890878 33.761278H610.058226c18.038783 0 32.888831-15.245311 32.88883-33.761278v-30.492671c0-18.513919-14.850047-33.763327-32.88883-33.763327H373.817339c-17.709055 0-32.309247 14.708735-32.841726 32.759807z m36.726782 4.632576H606.515186v22.870015H377.702395v-22.870015z" fill="#37456A" p-id="8160"></path><path d="M727.128045 403.191792h-47.403006v37.39443h43.868158v514.940908H259.233792V440.942574h45.26899v-37.750782H255.700992c-4.54656 0-8.876032 0.937984-12.818432 2.627584-12.007424 5.14048-20.426751 17.287167-20.426751 31.496191v521.832427c0.70656 18.876415 15.560703 33.757183 33.593343 33.757182h471.431149c17.223679 0 31.035391-13.045759 32.722943-30.50291V433.788911c-1.714176-17.213439-15.845375-30.597119-33.075199-30.597119z" fill="#37456A" p-id="8161"></path><path d="M322.203645 729.135075h339.292147v49.444862H322.203645zM321.677309 635.856871h339.290099v49.444862H321.677309zM322.203645 819.222495h248.291318v49.444862H322.203645zM322.203645 543.975402h339.292147v49.608702H322.203645z" fill="#37456A" p-id="8162"></path><path d="M466.747383 277.391349c3.559424 4.081664 7.124992 8.163328 12.224512 8.517632 6.289408 1.71008 12.756991 0.88064 18.212863-3.854336 2.72384-2.36544 4.268032-6.100992 5.808128-9.8304 0.370688-1.441792 0.794624-2.859008 1.181696-4.288512 16.179199-59.774974 47.765502-112.343036 97.05062-155.14009 6.81984-5.920768 14.823423-10.487808 21.643263-16.402431l8.00768-4.564992c6.64576-3.375104 12.097536-8.11008 18.739199-11.489279l8.00768-4.560896 19.927039-10.129408 6.643712-3.379199c6.639616-3.373056 14.483455-5.388288 25.040895-9.771008 47.157246-14.641151 97.33734-17.559551 146.812922-10.299392 69.705725 11.218944 135.100411 47.712254 181.387257 100.784124l16.619519 19.052544-40.91699 35.528702 125.419515 39.370751-16.4864-131.569659-40.910846 35.528702-16.617471-19.050495c-46.297086-53.075966-107.765756-90.576892-179.499001-109.611003-7.467008-3.069952-16.314367-4.960256-23.965695-5.490688l-3.735552-1.538048c-54.401022-10.156032-109.86086-5.046272-162.295802 11.784191l-3.926015 1.005568c-7.827456 2.01728-17.022975 5.21216-27.582463 9.601024l-5.277696 2.189312-19.927039 10.131455-16.01536 9.121792c-2.545664-0.178176-5.2736 2.189312-8.005631 4.560896l-14.823424 10.479615c-8.00768 4.562944-14.823423 10.483712-21.647359 16.406528l-4.089856 3.55328c-53.192702 46.188542-90.775548 107.522044-108.486651 177.901561a9.82016 9.82016 0 0 0-1.312768 3.948543c-0.423936 3.741696 1.1776 7.61856 2.795519 11.503616z" fill="#F0B90B" p-id="8163"></path><path d="M1378.908115 928.929755V428.492783c0-13.156351-10.676224-23.822335-23.818239-23.822335-13.144063 0-23.822335 10.665984-23.822335 23.822335V928.931803c0 26.144767-21.377023 47.42963-47.68563 47.42963H902.528998c-26.286079 0-47.661054-21.288959-47.661054-47.42963V428.492783c0-13.156351-10.678272-23.822335-23.822335-23.822335-13.142015 0-23.820287 10.665984-23.820287 23.822335v500.436972c0 52.434942 42.756094 95.070204 95.303676 95.070204H1283.583959a94.906364 94.906364 0 0 0 51.929086-15.407103c26.093567-16.977919 43.39507-46.331902 43.39507-79.663101z" fill="#48515D" p-id="8164"></path><path d="M1188.345819 523.775979v333.481971c0 13.168639 10.678272 23.822335 23.818239 23.822335 13.146111 0 23.824383-10.653696 23.824383-23.822335V523.775979c0-13.158399-10.678272-23.826431-23.824383-23.826431-13.139967 0-23.818239 10.668032-23.818239 23.826431zM926.322661 333.211635H700.02891c-13.139967 0-23.816191 10.663936-23.816191 23.816191 0 13.156351 10.676224 23.822335 23.816191 23.822335h786.073569c13.142015 0 23.818239-10.665984 23.818239-23.822335 0-13.154303-10.676224-23.816191-23.818239-23.816191h-559.779818zM1069.248479 523.775979v333.481971c0 13.168639 10.676224 23.822335 23.818239 23.822335s23.818239-10.653696 23.818239-23.822335V523.775979c0-13.158399-10.676224-23.826431-23.818239-23.826431s-23.818239 10.668032-23.818239 23.826431zM950.144996 523.775979v333.481971c0 13.168639 10.68032 23.822335 23.820287 23.822335 13.146111 0 23.824383-10.653696 23.824383-23.822335V523.775979c0-13.158399-10.678272-23.826431-23.824383-23.826431-13.144063 0-23.820287 10.668032-23.820287 23.826431z" fill="#48515D" p-id="8165"></path></svg>