<?xml version="1.0" standalone="no"?><!DOCTYPE svg PUBLIC "-//W3C//DTD SVG 1.1//EN" "http://www.w3.org/Graphics/SVG/1.1/DTD/svg11.dtd"><svg t="1538117383235" class="icon" style="" viewBox="0 0 1024 1024" version="1.1" xmlns="http://www.w3.org/2000/svg" p-id="1969" xmlns:xlink="http://www.w3.org/1999/xlink" width="200" height="200"><defs><style type="text/css"></style></defs><path d="M476.928 234.1376A307.2 307.2 0 1 0 747.52 773.7344 341.3504 341.3504 0 0 0 476.928 234.1376z" fill="#F8C0CA" p-id="1970"></path><path d="M184.32 529.9712A373.76 373.76 0 0 1 257.792 307.2a341.6576 341.6576 0 0 0 299.3152 598.4256A376.2688 376.2688 0 0 1 184.32 529.9712z" fill="#F8C0CA" p-id="1971"></path><path d="M628.0192 533.248L724.6848 629.76A45.568 45.568 0 1 1 660.48 694.272l-96.6656-96.6144-96.9216 96.6144A45.568 45.568 0 1 1 402.432 629.76l96.6656-96.6144L402.432 436.5824a45.568 45.568 0 1 1 64.4608-64.4096l96.6656 96.6144L660.48 372.1728a45.568 45.568 0 0 1 64.4608 64.4096z" fill="#F23051" p-id="1972"></path><path d="M560.3328 154.2656a375.7056 375.7056 0 0 0-3.2256 751.4112h3.2256a375.7568 375.7568 0 1 0 0-751.5136z m187.136 619.52a307.2 307.2 0 1 1 120.4736-243.7632 306.1248 306.1248 0 0 1-120.4224 243.712z" fill="#F23051" p-id="1973"></path></svg>