<svg width="1178" height="197" viewBox="0 0 1178 197" fill="none" xmlns="http://www.w3.org/2000/svg">
<path d="M243.297 66.4219H268.219C272.906 66.3177 277.021 67.3854 280.562 69.625C282.906 70.9792 284.729 72.8281 286.031 75.1719C287.281 77.776 287.906 80.9792 287.906 84.7812C287.906 89.3646 286.37 93.5312 283.297 97.2812C280.068 101.135 275.25 103.115 268.844 103.219H243.297V66.4219ZM226.031 164H243.297V119.547H269.547C281.266 119.339 290.172 115.589 296.266 108.297C302.203 101.37 305.172 93.6875 305.172 85.25C305.172 79 304 73.5833 301.656 69C299.417 64.2604 296.5 60.6146 292.906 58.0625C288.635 54.6771 284.417 52.4375 280.25 51.3438C276.083 50.5104 271.76 50.0938 267.281 50.0938H226.031V164ZM315.637 123.375C315.637 131.917 316.341 138.427 317.747 142.906C319.205 147.385 321.445 151.266 324.466 154.547C326.705 157.099 329.83 159.391 333.841 161.422C337.799 163.661 342.877 164.833 349.075 164.938C355.481 164.833 360.664 163.661 364.622 161.422C366.757 160.484 368.502 159.365 369.856 158.062C371.367 156.917 372.643 155.745 373.684 154.547C376.914 151.266 379.205 147.385 380.559 142.906C381.861 138.427 382.512 131.917 382.512 123.375C382.512 114.833 381.861 108.271 380.559 103.688C379.205 99.2083 376.914 95.4323 373.684 92.3594C371.549 89.651 368.528 87.2292 364.622 85.0938C360.664 83.0625 355.481 81.9948 349.075 81.8906C342.877 81.9948 337.799 83.0625 333.841 85.0938C329.83 87.2292 326.705 89.651 324.466 92.3594C321.445 95.4323 319.205 99.2083 317.747 103.688C316.341 108.271 315.637 114.833 315.637 123.375ZM366.184 123.531C366.184 129.052 365.924 133.115 365.403 135.719C364.882 138.375 363.815 140.719 362.2 142.75C361.002 144.312 359.231 145.693 356.887 146.891C354.648 148.036 352.044 148.609 349.075 148.609C346.315 148.609 343.762 148.036 341.419 146.891C339.179 145.693 337.356 144.312 335.95 142.75C334.544 140.719 333.528 138.375 332.903 135.719C332.278 133.115 331.966 129 331.966 123.375C331.966 117.698 332.278 113.531 332.903 110.875C333.528 108.323 334.544 106.083 335.95 104.156C337.356 102.333 339.179 100.901 341.419 99.8594C343.762 98.7656 346.315 98.2188 349.075 98.2188C352.044 98.2188 354.648 98.7656 356.887 99.8594C359.231 100.901 361.002 102.333 362.2 104.156C363.815 106.083 364.882 108.323 365.403 110.875C365.924 113.531 366.184 117.75 366.184 123.531ZM402.822 144.312C402.822 151.448 404.853 156.526 408.916 159.547C412.77 162.516 417.666 164 423.603 164H430.869V148.609H425.244C421.181 148.609 419.15 146.76 419.15 143.062V50.0938H402.822V144.312ZM447.272 164H463.6V140.641L476.413 126.109L497.975 164H518.444L486.647 114.547L514.616 82.9062H495.084L463.913 120.953H463.6V50.0938H447.272V164ZM576.175 164H592.503V108.609C592.399 98.7135 589.3 91.7344 583.206 87.6719C577.112 83.7135 568.961 81.7865 558.753 81.8906C546.67 81.6823 537.529 85.6406 531.331 93.7656L544.144 103.531C545.55 101.188 547.477 99.5208 549.925 98.5312C552.269 97.6979 555.472 97.2812 559.534 97.2812C570.732 97.0729 576.279 100.536 576.175 107.672V116.188H553.597C544.951 116.292 538.389 118.635 533.909 123.219C529.43 127.698 527.191 133.349 527.191 140.172C527.191 147.307 529.769 153.167 534.925 157.75C539.821 162.438 546.8 164.833 555.862 164.938C561.383 164.938 565.706 164.26 568.831 162.906C572.008 161.604 574.352 159.573 575.862 156.812H576.175V164ZM576.175 135.484C576.175 141.578 574.899 145.484 572.347 147.203C569.534 148.922 564.717 149.729 557.894 149.625C552.477 149.625 548.597 148.557 546.253 146.422C543.805 144.495 542.581 142.151 542.581 139.391C542.477 133.089 547.165 129.833 556.644 129.625H576.175V135.484ZM618.281 164H635.547V115.328H682.891V100.016H635.547V66.4219H691.016V50.0938H618.281V164ZM698.981 123.375C698.981 131.917 699.684 138.427 701.091 142.906C702.549 147.385 704.789 151.266 707.809 154.547C710.049 157.099 713.174 159.391 717.184 161.422C721.143 163.661 726.221 164.833 732.419 164.938C738.825 164.833 744.007 163.661 747.966 161.422C750.101 160.484 751.846 159.365 753.2 158.062C754.71 156.917 755.986 155.745 757.028 154.547C760.257 151.266 762.549 147.385 763.903 142.906C765.205 138.427 765.856 131.917 765.856 123.375C765.856 114.833 765.205 108.271 763.903 103.688C762.549 99.2083 760.257 95.4323 757.028 92.3594C754.893 89.651 751.872 87.2292 747.966 85.0938C744.007 83.0625 738.825 81.9948 732.419 81.8906C726.221 81.9948 721.143 83.0625 717.184 85.0938C713.174 87.2292 710.049 89.651 707.809 92.3594C704.789 95.4323 702.549 99.2083 701.091 103.688C699.684 108.271 698.981 114.833 698.981 123.375ZM749.528 123.531C749.528 129.052 749.268 133.115 748.747 135.719C748.226 138.375 747.158 140.719 745.544 142.75C744.346 144.312 742.575 145.693 740.231 146.891C737.992 148.036 735.388 148.609 732.419 148.609C729.658 148.609 727.106 148.036 724.763 146.891C722.523 145.693 720.7 144.312 719.294 142.75C717.888 140.719 716.872 138.375 716.247 135.719C715.622 133.115 715.309 129 715.309 123.375C715.309 117.698 715.622 113.531 716.247 110.875C716.872 108.323 717.888 106.083 719.294 104.156C720.7 102.333 722.523 100.901 724.763 99.8594C727.106 98.7656 729.658 98.2188 732.419 98.2188C735.388 98.2188 737.992 98.7656 740.231 99.8594C742.575 100.901 744.346 102.333 745.544 104.156C747.158 106.083 748.226 108.323 748.747 110.875C749.268 113.531 749.528 117.75 749.528 123.531ZM786.166 136.812C786.27 145.979 789.265 152.906 795.15 157.594C800.567 162.385 806.634 164.833 813.353 164.938C821.999 164.938 829.004 161.734 834.369 155.328H834.681V164H851.009V82.9062H834.681V131.188C834.681 136.656 833.171 140.927 830.15 144C827.181 147.073 823.353 148.609 818.666 148.609C813.978 148.609 810.124 147.073 807.103 144C804.03 140.927 802.494 136.656 802.494 131.188V82.9062H786.166V136.812ZM875.303 164H891.631V115.719C891.631 110.042 893.168 105.719 896.241 102.75C899.261 99.7292 903.116 98.2188 907.803 98.2188C912.491 98.2188 916.319 99.7292 919.287 102.75C922.308 105.719 923.819 110.042 923.819 115.719V164H940.147V110.094C939.886 100.823 936.996 93.7917 931.475 89C925.902 84.2604 919.756 81.8906 913.037 81.8906C904.34 81.8906 897.308 85.0938 891.944 91.5H891.631V82.9062H875.303V164ZM1012.96 155.484V164H1029.28V50.0938H1012.96V91.5C1009.94 88.6354 1006.78 86.2917 1003.5 84.4688C999.961 82.75 996.107 81.8906 991.941 81.8906C982.045 82.151 974.805 85.6927 970.222 92.5156C967.982 95.0677 966.498 98.4271 965.769 102.594C964.883 106.708 964.441 113.635 964.441 123.375C964.441 132.958 964.883 139.833 965.769 144C966.498 148.375 967.982 151.839 970.222 154.391C972.67 157.516 975.717 160.016 979.362 161.891C982.852 163.818 987.045 164.833 991.941 164.938C1000.59 164.729 1007.59 161.578 1012.96 155.484ZM996.941 98.2188C1000.79 98.2188 1003.84 98.974 1006.08 100.484C1008.32 101.995 1009.86 103.974 1010.69 106.422C1011.73 108.87 1012.44 111.526 1012.8 114.391C1012.9 117.255 1012.96 120.25 1012.96 123.375C1012.96 126.24 1012.9 129.156 1012.8 132.125C1012.44 135.146 1011.73 137.88 1010.69 140.328C1009.86 142.776 1008.32 144.755 1006.08 146.266C1003.84 147.828 1000.79 148.609 996.941 148.609C993.086 148.609 990.144 147.88 988.112 146.422C985.873 144.911 984.232 142.984 983.191 140.641C982.201 138.193 981.55 135.432 981.237 132.359C980.925 129.443 980.769 126.448 980.769 123.375C980.769 120.146 980.925 116.995 981.237 113.922C981.55 111.057 982.201 108.401 983.191 105.953C984.232 103.505 985.873 101.578 988.112 100.172C990.144 98.8698 993.086 98.2188 996.941 98.2188ZM1050.77 164H1067.09V115.172C1067.2 109.234 1068.92 104.938 1072.25 102.281C1075.22 99.5729 1078.79 98.2188 1082.95 98.2188C1086.65 98.2188 1090.22 99.5729 1093.66 102.281L1105.53 88.1406C1100.69 84.0781 1095.01 81.9948 1088.5 81.8906C1079.8 81.8906 1072.77 85.0938 1067.41 91.5H1067.09V82.9062H1050.77V164ZM1133.73 160.797L1129.28 174.391C1128.55 176.734 1127.27 178.505 1125.45 179.703C1123.63 180.849 1121.65 181.422 1119.51 181.422H1114.75V196.812H1120.14C1125.19 196.812 1129.72 195.693 1133.73 193.453C1137.69 191.109 1140.79 186.891 1143.03 180.797L1177.95 82.9062H1160.61L1141.47 139.703H1141.15L1121.93 82.9062H1104.67L1133.73 160.797Z" fill="white"/>
<circle cx="80" cy="101" r="65" stroke="url(#paint0_linear)" stroke-width="30"/>
<circle cx="177" cy="20" r="20" fill="url(#paint1_linear)"/>
<defs>
<linearGradient id="paint0_linear" x1="80" y1="21" x2="80" y2="181" gradientUnits="userSpaceOnUse">
<stop stop-color="#FC3868"/>
<stop offset="1" stop-color="#FC3A6B" stop-opacity="0"/>
</linearGradient>
<linearGradient id="paint1_linear" x1="177" y1="0" x2="177" y2="40" gradientUnits="userSpaceOnUse">
<stop offset="0.0420559" stop-color="#08DEFC"/>
<stop offset="1" stop-color="#08DEFC"/>
</linearGradient>
</defs>
</svg>
