<?xml version="1.0" encoding="utf-8"?>
<!-- Generator: Adobe Illustrator 16.0.0, SVG Export Plug-In . SVG Version: 6.00 Build 0)  -->
<!DOCTYPE svg PUBLIC "-//W3C//DTD SVG 1.1//EN" "http://www.w3.org/Graphics/SVG/1.1/DTD/svg11.dtd">
<svg version="1.1" id="图层_1" xmlns="http://www.w3.org/2000/svg" xmlns:xlink="http://www.w3.org/1999/xlink" x="0px" y="0px"
	 width="500px" height="500px" viewBox="0 0 500 500" enable-background="new 0 0 500 500" xml:space="preserve">
<g>
	<path fill="#F0B90B" d="M119.984,124.968l-43.311,25.011v50.018L33.32,174.986v-50.018l43.354-25.055L119.984,124.968z
		 M423.33,99.913l-43.313,25.055l43.313,25.011v50.018l43.35-25.011v-50.018L423.33,99.913z M336.668,49.895l-43.316-25.05
		L250.004-0.248l-86.666,50.143l-43.354,25.012l43.354,25.006l43.312-25.006l43.354-25.012l43.348,25.012l43.316,25.006
		l43.35-25.006L336.668,49.895z M250.004,99.913l-43.354,25.055l43.354,25.011l43.348-25.011L250.004,99.913z M336.668,149.979
		l-43.316,25.007l-43.348,25.011l-86.666-50.018l-43.354,25.007v50.023l43.354,25.048l43.312,25.014v100.082l43.354,25.014
		l43.348-25.014V275.07l43.316-25.014l43.35-25.048v-50.023L336.668,149.979z M336.668,300.08v50.061l43.35-24.848V275.27
		L336.668,300.08z M423.33,250.057v100.084l-86.662,50.025v50.021l43.35-25.012l43.313-25.01l43.35-25.014V225.009L423.33,250.057z
		 M76.674,350.141V250.057L33.32,225.009v150.144l43.354,25.014l43.311,25.01l43.354,25.012v-50.021L76.674,350.141z
		 M293.314,425.176l-43.311,25.012l-43.354-25.012v50.061l43.354,25.012l43.348-25.012v-50.061H293.314z M119.984,275.07v50.223
		l43.312,25.01V300.08L119.984,275.07z M119.984,275.07"/>
</g>
</svg>
