<svg width="100" height="120" xmlns="http://www.w3.org/2000/svg">

 <g>
  <title>background</title>
  <rect fill="none" id="canvas_background" height="122" width="102" y="-1" x="-1"/>
 </g>
 <g>
  <title>Layer 1</title>
  <g id="svg_1">
   <g id="svg_2">
    <g id="svg_3">
     <g id="svg_4">
      <g id="svg_5">
       <g id="svg_6">
        <g id="svg_7">
         <path fill="#ffffff" id="svg_8" d="m74.06,32.87c-0.77,0 -1.5,-0.44 -1.83,-1.19l-8.28,-18.62l-38.35,19.59c-0.98,0.5 -2.19,0.11 -2.69,-0.87c-0.5,-0.98 -0.11,-2.19 0.87,-2.69l40.23,-20.55c0.49,-0.25 1.06,-0.29 1.58,-0.1c0.52,0.17 0.94,0.56 1.16,1.06l9.14,20.55c0.45,1.01 0,2.19 -1.01,2.64c-0.27,0.12 -0.55,0.18 -0.82,0.18z"/>
        </g>
       </g>
      </g>
     </g>
    </g>
    <g id="svg_9">
     <g id="svg_10">
      <g id="svg_11">
       <g id="svg_12">
        <g id="svg_13">
         <g id="svg_14">
          <path fill="#ffffff" id="svg_15" d="m76.56,91.68l-59.34,0c-5.17,0 -9.38,-4.21 -9.38,-9.38l0,-44.05c0,-5.17 4.21,-9.38 9.38,-9.38l59.34,0c5.17,0 9.38,4.21 9.38,9.38l0,9.36c0,1.1 -0.9,2 -2,2s-2,-0.9 -2,-2l0,-9.36c0,-2.97 -2.42,-5.38 -5.38,-5.38l-59.34,0c-2.97,0 -5.38,2.42 -5.38,5.38l0,44.05c0,2.97 2.42,5.38 5.38,5.38l59.34,0c2.97,0 5.38,-2.42 5.38,-5.38l0,-9.65c0,-1.1 0.9,-2 2,-2s2,0.9 2,2l0,9.65c0.01,5.17 -4.2,9.38 -9.38,9.38z"/>
         </g>
        </g>
       </g>
      </g>
     </g>
    </g>
    <g id="svg_16">
     <g id="svg_17">
      <g id="svg_18">
       <g id="svg_19">
        <g id="svg_20">
         <g id="svg_21">
          <g id="svg_22">
           <path fill="#ffffff" id="svg_23" d="m61.22,62.42c-1.19,0 -2.15,-0.96 -2.15,-2.15c0,-1.19 0.96,-2.15 2.15,-2.15c1.19,0 2.15,0.96 2.15,2.15c0,1.19 -0.97,2.15 -2.15,2.15zm0,-2.3c-0.08,0 -0.15,0.07 -0.15,0.15c0,0.17 0.3,0.17 0.3,0c0,-0.08 -0.07,-0.15 -0.15,-0.15z"/>
          </g>
         </g>
        </g>
       </g>
      </g>
     </g>
    </g>
    <g id="svg_24">
     <g id="svg_25">
      <g id="svg_26">
       <g id="svg_27">
        <g id="svg_28">
         <path fill="#ffffff" id="svg_29" d="m90.16,74.33l-32.58,0c-5.17,0 -9.38,-4.21 -9.38,-9.38l0,-9.35c0,-5.17 4.21,-9.38 9.38,-9.38l32.58,0c1.1,0 2,0.9 2,2l0,24.12c0,1.1 -0.89,1.99 -2,1.99zm-32.58,-24.12c-2.97,0 -5.38,2.42 -5.38,5.38l0,9.35c0,2.97 2.42,5.38 5.38,5.38l30.58,0l0,-20.11l-30.58,0z"/>
        </g>
       </g>
      </g>
     </g>
    </g>
   </g>
   <g id="svg_30">
    <g id="svg_31">
     <g id="svg_32">
      <g id="svg_33">
       <g id="svg_34">
        <path fill="#ffffff" id="svg_35" d="m19.82,76.14c-0.55,0 -1,-0.45 -1,-1l0,-31.66c0,-0.55 0.45,-1 1,-1s1,0.45 1,1l0,31.67c0,0.55 -0.45,0.99 -1,0.99z"/>
       </g>
      </g>
     </g>
    </g>
   </g>
  </g>
 </g>
</svg>