<?xml version="1.0" encoding="UTF-8"?>
<svg width="124px" height="53px" viewBox="0 0 124 53" version="1.1" xmlns="http://www.w3.org/2000/svg" xmlns:xlink="http://www.w3.org/1999/xlink">
    <!-- Generator: Sketch 52.6 (67491) - http://www.bohemiancoding.com/sketch -->
    <title>open  dex</title>
    <desc>Created with Sketch.</desc>
    <defs>
        <path d="M29.7197508,8.00285557 L28.3604983,8.80241137 L28.3604983,10.401523 L27,9.60196718 L27,8.00285557 L28.3604983,7.20203063 L29.7197508,8.00285557 Z M39.2395016,7.20203063 L40.6,8.00285557 L40.6,9.60196718 L39.2395016,10.401523 L39.2395016,8.80241137 L37.8802492,8.00285557 L39.2395016,7.20203063 Z M36.5197508,5.60291902 L37.8802492,6.40247483 L36.5197508,7.20203063 L35.1604983,6.40247483 L33.8,5.60291902 L32.4395016,6.40247483 L31.0802492,7.20203063 L29.7197508,6.40247483 L31.0802492,5.60291902 L33.8,4 L35.1604983,4.80209408 L36.5197508,5.60291902 Z M33.8,7.20203063 L35.1604983,8.00285557 L33.8,8.80241137 L32.4395016,8.00285557 L33.8,7.20203063 Z M36.5197508,8.80241137 L37.8802492,9.60196718 L37.8802492,11.2010788 L36.5197508,12.0019037 L35.1604983,12.8014595 L35.1604983,16.0009519 L33.8,16.8005077 L32.4395016,16.0009519 L32.4395016,12.8014595 L31.0802492,12.0019037 L29.7197508,11.2010788 L29.7197508,9.60196718 L31.0802492,8.80241137 L33.8,10.401523 L35.1604983,9.60196718 L36.5197508,8.80241137 Z M36.5197508,13.6010153 L37.8802492,12.8078052 L37.8802492,14.4069168 L36.5197508,15.2013961 L36.5197508,13.6010153 Z M39.2395016,12.0019037 L40.6,11.2010788 L40.6,16.0009519 L39.2395016,16.8005077 L37.8802492,17.6000635 L36.5197508,18.3996193 L36.5197508,16.8005077 L39.2395016,15.2013961 L39.2395016,12.0019037 Z M28.3604983,15.2013961 L31.0802492,16.8005077 L31.0802492,18.3996193 L29.7197508,17.6000635 L28.3604983,16.8005077 L27,16.0009519 L27,11.2010788 L28.3604983,12.0019037 L28.3604983,15.2013961 Z M35.1592525,17.6000635 L35.1604983,17.6000635 L35.1604983,19.2004442 L33.8,20 L32.4395016,19.2004442 L32.4395016,17.6000635 L33.8,18.3996193 L35.1592525,17.6000635 Z M29.7197508,12.8014595 L31.0790033,13.6010153 L31.0790033,15.2064726 L29.7197508,14.4069168 L29.7197508,12.8014595 Z" id="path-1"></path>
        <filter x="-62.5%" y="-40.6%" width="225.0%" height="206.2%" filterUnits="objectBoundingBox" id="filter-2">
            <feOffset dx="0" dy="2" in="SourceAlpha" result="shadowOffsetOuter1"></feOffset>
            <feGaussianBlur stdDeviation="2.5" in="shadowOffsetOuter1" result="shadowBlurOuter1"></feGaussianBlur>
            <feColorMatrix values="0 0 0 0 0   0 0 0 0 0   0 0 0 0 0  0 0 0 0.15 0" type="matrix" in="shadowBlurOuter1"></feColorMatrix>
        </filter>
        <linearGradient x1="111.539463%" y1="88.6971464%" x2="0%" y2="0%" id="linearGradient-3">
            <stop stop-color="#F9DD1A" offset="0%"></stop>
            <stop stop-color="#F0B90B" offset="100%"></stop>
        </linearGradient>
    </defs>
    <g id="unlock" stroke="none" stroke-width="1" fill="none" fill-rule="evenodd">
        <g id="3-unlock-a-wallet-Ledger" transform="translate(-1130.000000, -661.000000)">
            <g id="open--dex" transform="translate(1130.000000, 661.000000)">
                <path d="M22.0131579,31.4868421 L22.0131579,6.61842105 L1.25,6.61842105 L1.25,31.4868421 L22.0131579,31.4868421 Z" id="路径" stroke="#848E9C" stroke-width="2.5" fill="#FFFFFF" opacity="0.600000024"></path>
                <path d="M25,1.25 C24.5857864,1.25 24.25,1.58578644 24.25,2 L24.25,35.8947368 C24.25,36.3089504 24.5857864,36.6447368 25,36.6447368 L121.210526,36.6447368 C121.62474,36.6447368 121.960526,36.3089504 121.960526,35.8947368 L121.960526,2 C121.960526,1.58578644 121.62474,1.25 121.210526,1.25 L25,1.25 Z" id="Rectangle-Copy" stroke="#848E9C" stroke-width="2.5" fill="#FFFFFF" opacity="0.600000024"></path>
                <rect id="Rectangle-3-Copy-2" fill="#848E9C" opacity="0.600000024" x="8.42105263" y="12.7368421" width="8.42105263" height="4.21052632"></rect>
                <rect id="Rectangle-3-Copy-3" fill="#848E9C" opacity="0.600000024" x="8.42105263" y="21.1578947" width="8.42105263" height="4.21052632"></rect>
                <g id="Group-2-Copy" transform="translate(39.000000, 5.000000)">
                    <rect id="Rectangle-3" fill="#848E9C" opacity="0.300000012" x="0" y="8" width="12" height="12" rx="1"></rect>
                    <rect id="Rectangle-3-Copy-6" fill="#848E9C" opacity="0.300000012" x="56" y="8" width="12" height="12" rx="1"></rect>
                    <path d="M16.568,27 L14.396,27 L14.396,22.998 L16.502,22.998 C17.264,22.998 17.654,23.484 17.654,24.018 C17.654,24.522 17.342,24.858 16.964,24.936 C17.39,25.002 17.732,25.416 17.732,25.92 C17.732,26.52 17.33,27 16.568,27 Z M16.316,24.6 C16.604,24.6 16.784,24.42 16.784,24.168 C16.784,23.916 16.604,23.73 16.316,23.73 L15.248,23.73 L15.248,24.6 L16.316,24.6 Z M16.346,26.262 C16.67,26.262 16.862,26.088 16.862,25.8 C16.862,25.548 16.682,25.332 16.346,25.332 L15.248,25.332 L15.248,26.262 L16.346,26.262 Z M18.734,23.79 C18.488,23.79 18.278,23.586 18.278,23.334 C18.278,23.082 18.488,22.884 18.734,22.884 C18.986,22.884 19.19,23.082 19.19,23.334 C19.19,23.586 18.986,23.79 18.734,23.79 Z M19.118,27 L18.356,27 L18.356,24.102 L19.118,24.102 L19.118,27 Z M22.592,27 L21.83,27 L21.83,25.248 C21.83,24.846 21.62,24.708 21.296,24.708 C20.996,24.708 20.762,24.876 20.636,25.05 L20.636,27 L19.874,27 L19.874,24.102 L20.636,24.102 L20.636,24.48 C20.822,24.258 21.176,24.03 21.65,24.03 C22.286,24.03 22.592,24.39 22.592,24.954 L22.592,27 Z M25.85,27 L25.088,27 L25.088,26.7 C24.89,26.934 24.548,27.072 24.17,27.072 C23.708,27.072 23.162,26.76 23.162,26.112 C23.162,25.434 23.708,25.176 24.17,25.176 C24.554,25.176 24.896,25.302 25.088,25.53 L25.088,25.14 C25.088,24.846 24.836,24.654 24.452,24.654 C24.14,24.654 23.852,24.768 23.606,24.996 L23.318,24.486 C23.672,24.174 24.128,24.03 24.584,24.03 C25.244,24.03 25.85,24.294 25.85,25.128 L25.85,27 Z M24.476,26.556 C24.722,26.556 24.962,26.472 25.088,26.304 L25.088,25.944 C24.962,25.776 24.722,25.692 24.476,25.692 C24.176,25.692 23.93,25.848 23.93,26.13 C23.93,26.4 24.176,26.556 24.476,26.556 Z M29.324,27 L28.562,27 L28.562,25.248 C28.562,24.846 28.352,24.708 28.028,24.708 C27.728,24.708 27.494,24.876 27.368,25.05 L27.368,27 L26.606,27 L26.606,24.102 L27.368,24.102 L27.368,24.48 C27.554,24.258 27.908,24.03 28.382,24.03 C29.018,24.03 29.324,24.39 29.324,24.954 L29.324,27 Z M31.43,27.072 C30.536,27.072 29.894,26.442 29.894,25.548 C29.894,24.66 30.536,24.03 31.43,24.03 C32.024,24.03 32.384,24.288 32.576,24.552 L32.078,25.02 C31.94,24.816 31.73,24.708 31.466,24.708 C31.004,24.708 30.68,25.044 30.68,25.548 C30.68,26.052 31.004,26.394 31.466,26.394 C31.73,26.394 31.94,26.274 32.078,26.082 L32.576,26.544 C32.384,26.814 32.024,27.072 31.43,27.072 Z M34.436,27.072 C33.554,27.072 32.888,26.478 32.888,25.548 C32.888,24.708 33.506,24.03 34.388,24.03 C35.252,24.03 35.84,24.678 35.84,25.626 L35.84,25.794 L33.686,25.794 C33.734,26.16 34.028,26.466 34.52,26.466 C34.766,26.466 35.108,26.358 35.294,26.178 L35.63,26.67 C35.342,26.934 34.886,27.072 34.436,27.072 Z M35.102,25.278 C35.084,25.002 34.892,24.636 34.388,24.636 C33.914,24.636 33.71,24.99 33.674,25.278 L35.102,25.278 Z M39.884,27.072 C38.684,27.072 37.754,26.232 37.754,25.002 C37.754,23.772 38.684,22.932 39.884,22.932 C40.766,22.932 41.276,23.412 41.558,23.91 L40.826,24.27 C40.658,23.946 40.298,23.688 39.884,23.688 C39.158,23.688 38.63,24.246 38.63,25.002 C38.63,25.758 39.158,26.316 39.884,26.316 C40.298,26.316 40.658,26.064 40.826,25.734 L41.558,26.088 C41.27,26.586 40.766,27.072 39.884,27.072 Z M44.774,27 L44.012,27 L44.012,25.236 C44.012,24.834 43.802,24.708 43.472,24.708 C43.178,24.708 42.944,24.876 42.812,25.05 L42.812,27 L42.05,27 L42.05,22.998 L42.812,22.998 L42.812,24.48 C42.998,24.258 43.358,24.03 43.832,24.03 C44.468,24.03 44.774,24.378 44.774,24.942 L44.774,27 Z M48.032,27 L47.27,27 L47.27,26.7 C47.072,26.934 46.73,27.072 46.352,27.072 C45.89,27.072 45.344,26.76 45.344,26.112 C45.344,25.434 45.89,25.176 46.352,25.176 C46.736,25.176 47.078,25.302 47.27,25.53 L47.27,25.14 C47.27,24.846 47.018,24.654 46.634,24.654 C46.322,24.654 46.034,24.768 45.788,24.996 L45.5,24.486 C45.854,24.174 46.31,24.03 46.766,24.03 C47.426,24.03 48.032,24.294 48.032,25.128 L48.032,27 Z M46.658,26.556 C46.904,26.556 47.144,26.472 47.27,26.304 L47.27,25.944 C47.144,25.776 46.904,25.692 46.658,25.692 C46.358,25.692 46.112,25.848 46.112,26.13 C46.112,26.4 46.358,26.556 46.658,26.556 Z M49.166,23.79 C48.92,23.79 48.71,23.586 48.71,23.334 C48.71,23.082 48.92,22.884 49.166,22.884 C49.418,22.884 49.622,23.082 49.622,23.334 C49.622,23.586 49.418,23.79 49.166,23.79 Z M49.55,27 L48.788,27 L48.788,24.102 L49.55,24.102 L49.55,27 Z M53.024,27 L52.262,27 L52.262,25.248 C52.262,24.846 52.052,24.708 51.728,24.708 C51.428,24.708 51.194,24.876 51.068,25.05 L51.068,27 L50.306,27 L50.306,24.102 L51.068,24.102 L51.068,24.48 C51.254,24.258 51.608,24.03 52.082,24.03 C52.718,24.03 53.024,24.39 53.024,24.954 L53.024,27 Z" id="Binance-Chain" fill="#848E9C"></path>
                    <g id="Combined-Shape">
                        <use fill="black" fill-opacity="1" filter="url(#filter-2)" xlink:href="#path-1"></use>
                        <use fill="#848E9C" fill-rule="evenodd" xlink:href="#path-1"></use>
                    </g>
                    <path d="M52.4872519,16.2678808 C53.8143096,15.6646785 55.3887995,16.2323581 56.0037287,17.5334613 C57.4734555,20.635376 58.7855595,23.7139788 59.9599498,26.8365581 C60.2908449,26.2124351 60.8768229,25.7248522 61.6227712,25.5266597 C62.6038931,25.2722798 63.6030987,25.5917276 64.247153,26.2776738 C64.5909152,25.7632782 65.1215122,25.3639043 65.7751298,25.1925246 C66.7507745,24.9381447 67.7450246,25.2546038 68.3889049,25.9315839 C68.6086143,25.5916913 68.9054361,25.306355 69.256135,25.0979113 C70.5064243,24.3555217 72.1326438,24.7488328 72.8877208,25.9760727 C75.7684028,30.6570383 76.9890455,37.1776683 77.5222507,42.5744669 C76.1661549,45.1323553 68.0153221,48.3083039 61.8943729,48.0067882 C59.5768906,45.0317646 56.2986304,39.9217945 49.8705208,36.3526201 C48.5681542,35.6992933 48.0518154,34.1317702 48.7167353,32.8515024 C49.3821768,31.5737964 50.9773586,31.0653781 52.2797252,31.7188757 C54.2620524,32.7153037 55.7775099,33.7266751 57.1186519,34.8298418 C56.7892324,33.768279 56.444188,32.7114543 56.0836268,31.6596997 C54.7103169,27.6587883 53.0952258,23.7227741 51.1989696,19.721692 C50.5836057,18.4176001 51.1606289,16.8709124 52.4872519,16.2678808 Z" id="路径" fill="url(#linearGradient-3)" opacity="0.303083147" transform="translate(62.974389, 32.026743) rotate(-15.000000) translate(-62.974389, -32.026743) "></path>
                    <path d="M52.4872519,13.2678808 C53.8143096,12.6646785 55.3887995,13.2323581 56.0037287,14.5334613 C57.4734555,17.635376 58.7855595,20.7139788 59.9599498,23.8365581 C60.2908449,23.2124351 60.8768229,22.7248522 61.6227712,22.5266597 C62.6038931,22.2722798 63.6030987,22.5917276 64.247153,23.2776738 C64.5909152,22.7632782 65.1215122,22.3639043 65.7751298,22.1925246 C66.7507745,21.9381447 67.7450246,22.2546038 68.3889049,22.9315839 C68.6086143,22.5916913 68.9054361,22.306355 69.256135,22.0979113 C70.5064243,21.3555217 72.1326438,21.7488328 72.8877208,22.9760727 C75.7684028,27.6570383 76.9890455,34.1776683 77.5222507,39.5744669 C76.1661549,42.1323553 68.0153221,45.3083039 61.8943729,45.0067882 C59.5768906,42.0317646 56.2986304,36.9217945 49.8705208,33.3526201 C48.5681542,32.6992933 48.0518154,31.1317702 48.7167353,29.8515024 C49.3821768,28.5737964 50.9773586,28.0653781 52.2797252,28.7188757 C54.2620524,29.7153037 55.7775099,30.7266751 57.1186519,31.8298418 C56.7892324,30.768279 56.444188,29.7114543 56.0836268,28.6596997 C54.7103169,24.6587883 53.0952258,20.7227741 51.1989696,16.721692 C50.5836057,15.4176001 51.1606289,13.8709124 52.4872519,13.2678808 Z" id="路径" stroke="#F7BD07" stroke-width="0.5" fill="url(#linearGradient-3)" transform="translate(62.974389, 29.026743) rotate(-15.000000) translate(-62.974389, -29.026743) "></path>
                </g>
            </g>
        </g>
    </g>
</svg>