<?xml version="1.0" standalone="no"?><!DOCTYPE svg PUBLIC "-//W3C//DTD SVG 1.1//EN" "http://www.w3.org/Graphics/SVG/1.1/DTD/svg11.dtd"><svg t="1537893003811" class="icon" style="" viewBox="0 0 1024 1024" version="1.1" xmlns="http://www.w3.org/2000/svg" p-id="1777" xmlns:xlink="http://www.w3.org/1999/xlink" width="200" height="200"><defs><style type="text/css"></style></defs><path d="M768 568.32c22.784 0 41.2672-15.8208 41.2672-35.3792a32.8704 32.8704 0 0 0-15.9232-27.904c-12.288-5.5296-40.96-5.5296-43.3664-24.2176 0-15.0016 12.6464-24.2176 28.2624-24.2176h34.7648c27.5968 0 49.9712-19.1488 49.9712-42.8032s-22.3744-42.8032-49.9712-42.8032h-23.1424L592.2304 568.32z" fill="#F1F3F5" p-id="1778"></path><path d="M855.04 254.976l-15.36-15.36a60.416 60.416 0 0 1 1.6896 13.9264 59.8016 59.8016 0 0 1-17.6128 42.5984l-494.336 494.0288a60.1088 60.1088 0 0 1-12.6976 9.6256l29.5424-0.7168a34.4064 34.4064 0 0 0 23.5008-10.24L855.04 303.616a34.4064 34.4064 0 0 0 0-48.64zM598.1184 735.488h243.5584v68.7616h-243.5584z" fill="#F8E8B1" p-id="1779"></path><path d="M176.384 240.64c-27.5968 0-49.9712 19.1488-49.9712 42.8032s22.3744 42.8032 49.9712 42.8032h19.5584c14.3872 0 26.0608 10.24 26.0608 22.3232s-11.6736 22.3232-26.0608 22.3232h-71.68c-27.5968 0-49.9712 19.1488-49.9712 42.8032s22.3744 42.8032 49.9712 42.8032h108.5952a27.1872 27.1872 0 0 1 9.5744 1.7408L460.1856 240.64zM167.68 497.5616c-22.784 0-41.2672 15.8208-41.2672 35.3792a33.4848 33.4848 0 0 0 14.5408 26.9312l62.2592-62.3104zM498.176 148.48H193.024c-14.6944 0-26.624 13.7728-26.624 30.72s11.9296 30.72 26.624 30.72h297.8816l33.7408-33.7408C523.3664 160.6144 512 148.48 498.176 148.48z" fill="#F1F3F5" p-id="1780"></path><path d="M64 291.84m-30.72 0a30.72 30.72 0 1 0 61.44 0 30.72 30.72 0 1 0-61.44 0Z" fill="#F1F3F5" p-id="1781"></path><path d="M877.056 599.04h-305.152c-14.6944 0-26.624 13.7728-26.624 30.72s11.9296 30.72 26.624 30.72h305.152c14.6944 0 26.624-13.7728 26.624-30.72s-11.9296-30.72-26.624-30.72z" fill="#F1F3F5" p-id="1782"></path><path d="M883.2 168.96m25.6 0l51.2 0q25.6 0 25.6 25.6l0 10.24q0 25.6-25.6 25.6l-51.2 0q-25.6 0-25.6-25.6l0-10.24q0-25.6 25.6-25.6Z" fill="#F1F3F5" p-id="1783"></path><path d="M839.68 239.4112a59.5456 59.5456 0 0 0-15.9232-28.5696L699.392 86.528a60.2624 60.2624 0 0 0-85.0944 0l-89.6512 89.6512L490.9056 209.92l-30.72 30.72-217.7536 217.7024-39.2192 39.2192-62.2592 62.3104-20.9408 20.9408a60.2624 60.2624 0 0 0-17.6128 46.336l7.3728 116.9408a60.2112 60.2112 0 0 0 56.32 56.32l116.7872 7.3728h3.8912a61.0304 61.0304 0 0 0 42.496-17.6128L551.2704 568.32l197.376-197.376 75.0592-75.008a59.8016 59.8016 0 0 0 17.6128-42.5984 60.416 60.416 0 0 0-1.6384-13.9264zM478.3616 568.32l-185.4464 185.3952a8.6016 8.6016 0 0 1-6.656 2.5088L215.04 751.7184l-46.08-2.9184a8.6016 8.6016 0 0 1-8.0384-7.9872l-7.3728-116.8896a8.6016 8.6016 0 0 1 2.5088-6.7072l49.3568-48.896 312.0128-312.0128 136.448 136.448z m308.8896-308.8896l-66.56 66.56-20.48 20.48-9.8816 9.8816L574.72 240.64l-20.7872-20.7872L650.752 122.88a8.6016 8.6016 0 0 1 12.1344 0l43.9296 43.9296 80.4352 80.4352a8.2432 8.2432 0 0 1 1.3824 1.8944 8.7552 8.7552 0 0 1 1.0752 4.1472 8.6528 8.6528 0 0 1-2.5088 6.144zM154.9312 863.488h686.7456v103.168H154.9312z" fill="#F0B90B" p-id="1784"></path></svg>