<?xml version="1.0" encoding="UTF-8"?>
<svg width="125px" height="56px" viewBox="0 0 125 56" version="1.1" xmlns="http://www.w3.org/2000/svg" xmlns:xlink="http://www.w3.org/1999/xlink">
    <!-- Generator: Sketch 52.6 (67491) - http://www.bohemiancoding.com/sketch -->
    <title>PIN  CODE</title>
    <desc>Created with Sketch.</desc>
    <defs>
        <rect id="path-1" x="31.7368421" y="11.6842105" width="11.5789474" height="14.7368421" rx="1"></rect>
        <filter x="-43.2%" y="-27.1%" width="186.4%" height="167.9%" filterUnits="objectBoundingBox" id="filter-2">
            <feOffset dx="0" dy="1" in="SourceAlpha" result="shadowOffsetOuter1"></feOffset>
            <feGaussianBlur stdDeviation="1.5" in="shadowOffsetOuter1" result="shadowBlurOuter1"></feGaussianBlur>
            <feComposite in="shadowBlurOuter1" in2="SourceAlpha" operator="out" result="shadowBlurOuter1"></feComposite>
            <feColorMatrix values="0 0 0 0 0.517647059   0 0 0 0 0.556862745   0 0 0 0 0.611764706  0 0 0 0.1 0" type="matrix" in="shadowBlurOuter1"></feColorMatrix>
        </filter>
        <rect id="path-3" x="49.6315789" y="11.6842105" width="11.5789474" height="14.7368421" rx="1"></rect>
        <filter x="-43.2%" y="-27.1%" width="186.4%" height="167.9%" filterUnits="objectBoundingBox" id="filter-4">
            <feOffset dx="0" dy="1" in="SourceAlpha" result="shadowOffsetOuter1"></feOffset>
            <feGaussianBlur stdDeviation="1.5" in="shadowOffsetOuter1" result="shadowBlurOuter1"></feGaussianBlur>
            <feComposite in="shadowBlurOuter1" in2="SourceAlpha" operator="out" result="shadowBlurOuter1"></feComposite>
            <feColorMatrix values="0 0 0 0 0.517647059   0 0 0 0 0.556862745   0 0 0 0 0.611764706  0 0 0 0.1 0" type="matrix" in="shadowBlurOuter1"></feColorMatrix>
        </filter>
        <rect id="path-5" x="67.5263158" y="11.6842105" width="11.5789474" height="14.7368421" rx="1"></rect>
        <filter x="-43.2%" y="-27.1%" width="186.4%" height="167.9%" filterUnits="objectBoundingBox" id="filter-6">
            <feOffset dx="0" dy="1" in="SourceAlpha" result="shadowOffsetOuter1"></feOffset>
            <feGaussianBlur stdDeviation="1.5" in="shadowOffsetOuter1" result="shadowBlurOuter1"></feGaussianBlur>
            <feComposite in="shadowBlurOuter1" in2="SourceAlpha" operator="out" result="shadowBlurOuter1"></feComposite>
            <feColorMatrix values="0 0 0 0 0.517647059   0 0 0 0 0.556862745   0 0 0 0 0.611764706  0 0 0 0.1 0" type="matrix" in="shadowBlurOuter1"></feColorMatrix>
        </filter>
        <rect id="path-7" x="85.4210526" y="11.6842105" width="11.5789474" height="14.7368421" rx="1"></rect>
        <filter x="-43.2%" y="-27.1%" width="186.4%" height="167.9%" filterUnits="objectBoundingBox" id="filter-8">
            <feOffset dx="0" dy="1" in="SourceAlpha" result="shadowOffsetOuter1"></feOffset>
            <feGaussianBlur stdDeviation="1.5" in="shadowOffsetOuter1" result="shadowBlurOuter1"></feGaussianBlur>
            <feComposite in="shadowBlurOuter1" in2="SourceAlpha" operator="out" result="shadowBlurOuter1"></feComposite>
            <feColorMatrix values="0 0 0 0 0.517647059   0 0 0 0 0.556862745   0 0 0 0 0.611764706  0 0 0 0.1 0" type="matrix" in="shadowBlurOuter1"></feColorMatrix>
        </filter>
        <rect id="path-9" x="103.315789" y="11.6842105" width="11.5789474" height="14.7368421" rx="1"></rect>
        <filter x="-43.2%" y="-27.1%" width="186.4%" height="167.9%" filterUnits="objectBoundingBox" id="filter-10">
            <feOffset dx="0" dy="1" in="SourceAlpha" result="shadowOffsetOuter1"></feOffset>
            <feGaussianBlur stdDeviation="1.5" in="shadowOffsetOuter1" result="shadowBlurOuter1"></feGaussianBlur>
            <feComposite in="shadowBlurOuter1" in2="SourceAlpha" operator="out" result="shadowBlurOuter1"></feComposite>
            <feColorMatrix values="0 0 0 0 0.517647059   0 0 0 0 0.556862745   0 0 0 0 0.611764706  0 0 0 0.1 0" type="matrix" in="shadowBlurOuter1"></feColorMatrix>
        </filter>
        <linearGradient x1="113.247956%" y1="83.9808186%" x2="-64.5344148%" y2="-128.921069%" id="linearGradient-11">
            <stop stop-color="#FBDA3C" offset="0%"></stop>
            <stop stop-color="#EFB80B" offset="100%"></stop>
        </linearGradient>
    </defs>
    <g id="unlock" stroke="none" stroke-width="1" fill="none" fill-rule="evenodd">
        <g id="3-unlock-a-wallet-Ledger" transform="translate(-1130.000000, -512.000000)">
            <g id="PIN--CODE" transform="translate(1130.000000, 512.000000)">
                <g id="分组-3" transform="translate(0.000000, 18.000000)">
                    <path d="M22.0131579,31.4868421 L22.0131579,6.61842105 L1.25,6.61842105 L1.25,31.4868421 L22.0131579,31.4868421 Z" id="路径" stroke="#848E9C" stroke-width="2.5" fill="#FFFFFF" opacity="0.600000024"></path>
                    <path d="M25.1052632,1.35526316 C24.6910496,1.35526316 24.3552632,1.6910496 24.3552632,2.10526316 L24.3552632,36 C24.3552632,36.4142136 24.6910496,36.75 25.1052632,36.75 L121.315789,36.75 C121.730003,36.75 122.065789,36.4142136 122.065789,36 L122.065789,2.10526316 C122.065789,1.6910496 121.730003,1.35526316 121.315789,1.35526316 L25.1052632,1.35526316 Z" id="Rectangle-Copy" stroke="#848E9C" stroke-width="2.5" fill="#FFFFFF" opacity="0.600000024"></path>
                    <g id="Rectangle-3-Copy" opacity="0.300000012">
                        <use fill="black" fill-opacity="1" filter="url(#filter-2)" xlink:href="#path-1"></use>
                        <use fill-opacity="0.5" fill="#848E9C" fill-rule="evenodd" xlink:href="#path-1"></use>
                    </g>
                    <g id="Rectangle-3-Copy-4" opacity="0.300000012">
                        <use fill="black" fill-opacity="1" filter="url(#filter-4)" xlink:href="#path-3"></use>
                        <use fill-opacity="0.5" fill="#848E9C" fill-rule="evenodd" xlink:href="#path-3"></use>
                    </g>
                    <g id="Rectangle-3-Copy-7" opacity="0.300000012">
                        <use fill="black" fill-opacity="1" filter="url(#filter-6)" xlink:href="#path-5"></use>
                        <use fill-opacity="0.5" fill="#848E9C" fill-rule="evenodd" xlink:href="#path-5"></use>
                    </g>
                    <g id="Rectangle-3-Copy-8" opacity="0.300000012">
                        <use fill="black" fill-opacity="1" filter="url(#filter-8)" xlink:href="#path-7"></use>
                        <use fill-opacity="0.5" fill="#848E9C" fill-rule="evenodd" xlink:href="#path-7"></use>
                    </g>
                    <g id="Rectangle-3-Copy-9" opacity="0.300000012">
                        <use fill="black" fill-opacity="1" filter="url(#filter-10)" xlink:href="#path-9"></use>
                        <use fill-opacity="0.5" fill="#848E9C" fill-rule="evenodd" xlink:href="#path-9"></use>
                    </g>
                    <rect id="Rectangle-3-Copy-2" fill="#848E9C" opacity="0.600000024" x="8.42105263" y="12.7368421" width="8.42105263" height="4.21052632"></rect>
                    <rect id="Rectangle-3-Copy-3" fill="#848E9C" opacity="0.600000024" x="8.42105263" y="21.1578947" width="8.42105263" height="4.21052632"></rect>
                    <polygon id="*" fill="#848E9C" points="38.0771114 22.4210526 36.9755202 22.4210526 37.0629481 20.4850228 35.4367896 21.5234388 34.8947368 20.5730242 36.5908376 19.6930107 34.8947368 18.8129971 35.4367896 17.8449822 37.0629481 18.8833982 36.9755202 16.9473684 38.0771114 16.9473684 37.9896835 18.8833982 39.5983564 17.8449822 40.1578947 18.8129971 38.461794 19.6930107 40.1578947 20.5730242 39.5983564 21.5234388 37.9896835 20.4850228"></polygon>
                    <polygon id="*-copy" fill="#848E9C" points="55.9718482 22.4210526 54.870257 22.4210526 54.9576849 20.4850228 53.3315265 21.5234388 52.7894737 20.5730242 54.4855744 19.6930107 52.7894737 18.8129971 53.3315265 17.8449822 54.9576849 18.8833982 54.870257 16.9473684 55.9718482 16.9473684 55.8844204 18.8833982 57.4930932 17.8449822 58.0526316 18.8129971 56.3565309 19.6930107 58.0526316 20.5730242 57.4930932 21.5234388 55.8844204 20.4850228"></polygon>
                    <polygon id="*-copy-2" fill="#848E9C" points="73.8665851 22.4210526 72.7649939 22.4210526 72.8524218 20.4850228 71.2262633 21.5234388 70.6842105 20.5730242 72.3803112 19.6930107 70.6842105 18.8129971 71.2262633 17.8449822 72.8524218 18.8833982 72.7649939 16.9473684 73.8665851 16.9473684 73.7791572 18.8833982 75.38783 17.8449822 75.9473684 18.8129971 74.2512677 19.6930107 75.9473684 20.5730242 75.38783 21.5234388 73.7791572 20.4850228"></polygon>
                    <polygon id="*-copy-3" fill="#848E9C" points="91.7613219 22.4210526 90.6597307 22.4210526 90.7471586 20.4850228 89.1210002 21.5234388 88.5789474 20.5730242 90.2750481 19.6930107 88.5789474 18.8129971 89.1210002 17.8449822 90.7471586 18.8833982 90.6597307 16.9473684 91.7613219 16.9473684 91.673894 18.8833982 93.2825669 17.8449822 93.8421053 18.8129971 92.1460045 19.6930107 93.8421053 20.5730242 93.2825669 21.5234388 91.673894 20.4850228"></polygon>
                    <polygon id="*-copy-4" fill="#848E9C" points="109.656059 22.4210526 108.554468 22.4210526 108.641895 20.4850228 107.015737 21.5234388 106.473684 20.5730242 108.169785 19.6930107 106.473684 18.8129971 107.015737 17.8449822 108.641895 18.8833982 108.554468 16.9473684 109.656059 16.9473684 109.568631 18.8833982 111.177304 17.8449822 111.736842 18.8129971 110.040741 19.6930107 111.736842 20.5730242 111.177304 21.5234388 109.568631 20.4850228"></polygon>
                </g>
                <path d="M50.1402715,2 L120.333497,2 C121.438067,2 122.333497,2.8954305 122.333497,4 C122.333497,4.1412728 122.318529,4.282148 122.288843,4.42026657 L118.148571,23.6834245 C117.950497,24.6049906 117.135838,25.2631579 116.193226,25.2631579 L65.7764034,25.2631579 L58.9351575,29.1554373 L57.1195146,25.2631579 L46,25.2631579 C44.8954305,25.2631579 44,24.3677274 44,23.2631579 C44,23.1218851 44.0149684,22.9810099 44.0446545,22.8428913 L48.184926,3.57973343 C48.3830002,2.65816727 49.1976594,2 50.1402715,2 Z" id="Rectangle-8" fill="url(#linearGradient-11)" opacity="0.3"></path>
                <path d="M61.0471305,26.804101 L67.652776,23.0458648 L67.7764034,23.0131579 L118.193226,23.0131579 C119.018012,23.0131579 119.730838,22.4372615 119.904153,21.6308911 L124.044425,2.36773325 C124.0704,2.2468795 124.083497,2.1236137 124.083497,2 C124.083497,1.03350169 123.299996,0.25 122.333497,0.25 L52.1402715,0.25 C51.3154859,0.25 50.6026591,0.825896363 50.4293442,1.63226675 L46.2890727,20.8954246 C46.2630973,21.0162784 46.25,21.1395442 46.25,21.2631579 C46.25,22.2296562 47.0335017,23.0131579 48,23.0131579 L59.2787583,23.0131579 L61.0471305,26.804101 Z" id="Rectangle-8" stroke="#F7BD07" stroke-width="0.5" fill="url(#linearGradient-11)"></path>
                <path d="M58.846,15.814 L57,15.814 L59.0882468,7.143 L63.1442468,7.143 C65.0292468,7.143 65.749428,8.417 65.3831238,9.938 C65.0199504,11.446 63.6700008,12.733 61.7980008,12.733 L59.5880008,12.733 L58.846,15.814 Z M61.9423514,11.108 C62.6703514,11.108 63.3259295,10.653 63.4981238,9.938 C63.6734489,9.21 63.2338962,8.768 62.5058962,8.768 L60.5428962,8.768 L59.9793514,11.108 L61.9423514,11.108 Z M66.958,15.814 L65.112,15.814 L67.2002468,7.143 L69.0462468,7.143 L66.958,15.814 Z M76.435,15.814 L74.654,15.814 L71.8819001,10.159 L70.52,15.814 L68.674,15.814 L70.7622468,7.143 L72.6602468,7.143 L75.3654396,12.59 L76.6772468,7.143 L78.5232468,7.143 L76.435,15.814 Z M85.6404303,15.97 C83.0404303,15.97 81.463743,14.15 82.105558,11.485 C82.747373,8.82 85.2006857,7 87.8006857,7 C89.7116857,7 90.5662213,8.04 90.9173645,9.119 L89.1435162,9.899 C88.9485797,9.197 88.3032043,8.638 87.4062043,8.638 C85.8332043,8.638 84.3980394,9.847 84.003558,11.485 C83.6090766,13.123 84.4619118,14.332 86.0349118,14.332 C86.9319118,14.332 87.8434056,13.786 88.3795998,13.071 L89.7808823,13.838 C88.8970255,14.917 87.5514303,15.97 85.6404303,15.97 Z M93.2454303,15.97 C91.1784303,15.97 90.2936037,14.462 90.7256548,12.668 C91.154575,10.887 92.7657484,9.379 94.8327484,9.379 C96.9127484,9.379 97.797575,10.887 97.3686548,12.668 C96.9366037,14.462 95.3254303,15.97 93.2454303,15.97 Z M93.5992113,14.501 C94.6262113,14.501 95.4147136,13.656 95.6526548,12.668 C95.8874651,11.693 95.5059675,10.848 94.4789675,10.848 C93.4519675,10.848 92.6764651,11.693 92.4416548,12.668 C92.2037136,13.656 92.5722113,14.501 93.5992113,14.501 Z M103.813,15.814 L102.149,15.814 L102.34311,15.008 C101.698831,15.632 100.92843,15.97 100.17443,15.97 C98.5884303,15.97 97.6804644,14.774 98.184524,12.681 C98.6791911,10.627 100.162748,9.379 101.761748,9.379 C102.502748,9.379 103.126478,9.704 103.467069,10.341 L104.237247,7.143 L105.901247,7.143 L103.813,15.814 Z M101.035211,14.501 C101.594211,14.501 102.26422,14.202 102.637406,13.786 L103.172773,11.563 C102.999959,11.147 102.473967,10.848 101.914967,10.848 C100.978967,10.848 100.150512,11.589 99.887524,12.681 C99.6276672,13.76 100.099211,14.501 101.035211,14.501 Z M108.36443,15.97 C106.45343,15.97 105.32038,14.683 105.805655,12.668 C106.243967,10.848 107.936748,9.379 109.847748,9.379 C111.719748,9.379 112.655621,10.783 112.160954,12.837 L112.073292,13.201 L107.406292,13.201 C107.319313,13.994 107.796642,14.657 108.862642,14.657 C109.395642,14.657 110.192996,14.423 110.68992,14.033 L111.161194,15.099 C110.399439,15.671 109.33943,15.97 108.36443,15.97 Z M110.743541,12.083 C110.848558,11.485 110.623537,10.692 109.531537,10.692 C108.504537,10.692 107.87782,11.459 107.649541,12.083 L110.743541,12.083 Z" id="PIN-Code" fill="#FFFFFF"></path>
            </g>
        </g>
    </g>
</svg>