<svg xmlns="http://www.w3.org/2000/svg" viewBox="0 0 200 200"><defs><style>.cls-1{fill:#f0b90b;}.cls-2{fill:#f8e8b1;}.cls-3{fill:none;}.cls-4{fill:#232a3f;}</style></defs><title>DEX IOCN</title><g id="图层_1" data-name="图层 1"><rect class="cls-1" x="151.63" y="54.46" width="8.2" height="8.2" transform="translate(4.21 127.3) rotate(-45.01)"/><rect class="cls-2" x="26.04" y="115.63" width="117.5" height="84.37"/><rect class="cls-3" x="151.63" y="54.46" width="8.2" height="8.2" transform="translate(4.2 127.26) rotate(-45)"/><rect class="cls-3" x="89.88" y="15.92" width="16.39" height="16.39" transform="translate(11.67 76.4) rotate(-44.99)"/><path class="cls-3" d="M140.67,108.87H103.59l1.66-2h-.1l4.79-5.61h0l14.88-17.4c4-4.16,4.94-8.85.78-12.89s-9.83-3-13.87,1.18L80.57,103.89h-.22l-5,5V184H151s7.79-1,7.76-10.45V166h-32v-7.72h32V139.87h-32v-7.72h32.14C159.27,127.36,159.25,110,140.67,108.87Z"/><path class="cls-4" d="M140.87,99.57H123.93l8.56-9.25a18.78,18.78,0,0,0-26.9-26.21L70.74,99.57H36.22v93.34h116c10.41,0,15.91-5.72,15.91-16.53V126.88A27.35,27.35,0,0,0,140.87,99.57Zm-17.34-16.8-19.67,23-2.14,2.63h0l-1.82,2.17h40.62c5.34.32,9.47,2.11,12.27,5.31,4,4.54,4.52,10.89,4.46,14.56H125.08v11.13h32v15h-32v11.13h32v5.9c0,7.34-5.4,8.6-6.19,8.75H77V109.58l4-4h.23L113,73.34a10,10,0,0,1,5.87-3.16,6.74,6.74,0,0,1,5.59,2C127.61,75.31,127.34,78.84,123.52,82.76ZM66.28,111.31v70.83H47.14V111.31Z"/><path class="cls-4" d="M155.74,43.46l-15.1,15.1,15.1,15.1,15.1-15.1Zm3.39,15.23-3.39,3.39-3.39-3.39,3.39-3.39Z"/><rect class="cls-1" x="40.26" y="54.46" width="8.2" height="8.2" transform="translate(-28.42 48.54) rotate(-45.01)"/><path class="cls-4" d="M44.37,43.46l-15.1,15.1,15.1,15.1,15.1-15.1Zm3.39,15.23-3.39,3.39L41,58.69l3.39-3.39Z"/><path class="cls-4" d="M98.08.09l-23.8,23.8,23.8,23.8,23.8-23.8Zm9.18,24-9.18,9.18L88.9,24.11l9.18-9.18Z"/><rect class="cls-3" x="-27851.57" y="-3113.9" width="47460.11" height="25855.87"/></g></svg>