<?xml version="1.0" encoding="UTF-8"?>
<svg width="40px" height="40px" viewBox="0 0 40 40" version="1.1" xmlns="http://www.w3.org/2000/svg" xmlns:xlink="http://www.w3.org/1999/xlink">
    <!-- Generator: Sketch 52.6 (67491) - http://www.bohemiancoding.com/sketch -->
    <title>2</title>
    <desc>Created with Sketch.</desc>
    <defs>
        <linearGradient x1="80.1300578%" y1="80.1300578%" x2="0%" y2="0%" id="linearGradient-1">
            <stop stop-color="#FBDA3C" offset="0%"></stop>
            <stop stop-color="#EFB80B" offset="100%"></stop>
        </linearGradient>
        <circle id="path-2" cx="12" cy="12" r="12"></circle>
        <filter x="-54.2%" y="-45.8%" width="208.3%" height="208.3%" filterUnits="objectBoundingBox" id="filter-3">
            <feOffset dx="0" dy="2" in="SourceAlpha" result="shadowOffsetOuter1"></feOffset>
            <feGaussianBlur stdDeviation="4" in="shadowOffsetOuter1" result="shadowBlurOuter1"></feGaussianBlur>
            <feColorMatrix values="0 0 0 0 0.937254902   0 0 0 0 0.721568627   0 0 0 0 0.0431372549  0 0 0 0.3 0" type="matrix" in="shadowBlurOuter1"></feColorMatrix>
        </filter>
    </defs>
    <g id="unlock" stroke="none" stroke-width="1" fill="none" fill-rule="evenodd">
        <g id="3-unlock-a-wallet-Ledger" transform="translate(-891.000000, -663.000000)">
            <g id="2" transform="translate(899.000000, 669.000000)">
                <g id="Oval-3-Copy">
                    <use fill="black" fill-opacity="1" filter="url(#filter-3)" xlink:href="#path-2"></use>
                    <use fill="url(#linearGradient-1)" fill-rule="evenodd" xlink:href="#path-2"></use>
                </g>
                <path d="M15.794,17.924 L8,17.924 L8,15.818 L12.788,10.256 C13.256,9.698 13.454,9.302 13.454,8.708 C13.454,7.754 12.896,7.106 11.906,7.106 C11.132,7.106 10.34,7.502 10.34,8.744 L8,8.744 C8,6.404 9.71,5 11.906,5 C14.174,5 15.794,6.422 15.794,8.726 C15.794,9.968 15.308,10.634 14.426,11.66 L10.844,15.818 L15.794,15.818 L15.794,17.924 Z" fill="#FFFFFF"></path>
            </g>
        </g>
    </g>
</svg>