<svg width="100" height="120.00000000000001" xmlns="http://www.w3.org/2000/svg">

 <g>
  <title>background</title>
  <rect fill="none" id="canvas_background" height="122" width="102" y="-1" x="-1"/>
 </g>
 <g>
  <title>Layer 1</title>
  <g id="svg_1">
   <path id="svg_2" fill="#fafafa" d="m21.999999,8.999977c-4.3974,0 -8,3.6026 -8,8l0,43.37504c-0.4735,0.2918 -0.9356,0.6142 -1.3438,1c-1.6745,1.583 -2.6562,3.9394 -2.6562,6.625l0,3l-2,0c-1.0472,0.0001 -1.9999,0.9528 -2,2l0,16c0.0001,1.0472 0.9528,1.9999 2,2l22,0c1.0472,-0.0001 1.9999,-0.9528 2,-2l0,-8l55.000002,0c3.8434,0 7,-3.1566 7,-7l0,-46.00004c0,-3.8434 -3.1566,-7 -7,-7l-5,0l0,-10c-0.0001,-1.0472 -0.9528,-1.9999 -2,-2l-58.000002,0zm0,4l56.000002,0l0,8l-56.000002,0c-2.2506,0 -4,-1.7494 -4,-4c0,-2.2506 1.7494,-4 4,-4zm-4,10.9062c1.1789,0.6866 2.5456,1.0938 4,1.0938c22.5241,-0.02 45.640602,0 65.000002,0c1.6966,0 3,1.3034 3,3l0,10l-27.000002,0c-2.7354,0 -5,2.2646 -5,5l0,16.00004c0,2.7354 2.2646,5 5,5l27.000002,0l0,10c0,1.6966 -1.3034,3 -3,3l-55.000002,0l0,-4c0,-0.9875 -0.8293,-1.907 -1.8125,-2l-16.1875,0l0,-3c0,-1.7464 0.5505,-2.9096 1.4062,-3.7188c0.856,-0.8089 2.0963,-1.2812 3.5938,-1.2812c2.5003,0 4.2288,1.174 4.8125,3.5c0.2618,1.0145 1.423,1.6993 2.4375,1.4375c1.0145,-0.2618 1.6993,-1.423 1.4375,-2.4375c-1.015,-4.0444 -4.6962,-6.5 -8.6875,-6.5c-0.3407,0 -0.6646,0.03 -1,0.062l0,-35.15634l0,0.0005zm45,18.0938l27.000002,0l0,18.00004l-27.000002,0c-0.5886,0 -1,-0.4114 -1,-1l0,-16.00004c0,-0.5886 0.4114,-1 1,-1zm8.000002,3.9688c-2.7377,0 -5,2.26224 -5,5.00004c0,2.7377 2.2623,5 5,5c2.7377,0 5,-2.2623 5,-5c0,-2.7378 -2.2623,-5.00004 -5,-5.00004zm0,4.00004c0.576,0 1,0.4239 1,1c0,0.5759 -0.424,1 -1,1c-0.576,0 -1,-0.4241 -1,-1c0,-0.5761 0.424,-1 1,-1zm-61.000002,25.0312l18,0l0,12l-18,0l0,-12z"/>
  </g>
 </g>
</svg>