<svg xmlns="http://www.w3.org/2000/svg" viewBox="0 0 200 200"><defs><style>.cls-1{fill:#f8e8b1;}.cls-2{fill:#15b5dd;}.cls-3{fill:none;}</style></defs><title>DEX IOCN</title><g id="图层_1" data-name="图层 1"><polygon class="cls-1" points="168.92 139.08 56.67 139.08 36.58 159.15 153.85 159.15 168.92 139.08"/><polygon class="cls-1" points="177.56 139.08 157.31 166.06 29.67 166.06 16.92 178.79 169.19 178.79 199 139.08 177.56 139.08"/><path class="cls-2" d="M43.07,124.62-.13,167.78h157.3l32.4-43.17ZM168.84,135,152,157.43H24.89L47.36,135Z"/><polygon class="cls-2" points="94.3 45.91 94.3 111.39 105.65 111.39 105.65 44.91 131.61 68.69 139.8 60.16 100.56 25 59.42 60.16 67.74 68.69 94.3 45.91"/><rect class="cls-3" x="-28287.57" y="-3113.9" width="47460.11" height="25855.87"/></g></svg>