<svg width="380" height="380" xmlns="http://www.w3.org/2000/svg">
 <!-- Generator: Sketch 49.3 (51167) - http://www.bohemiancoding.com/sketch -->
 <title>logo</title>
 <desc>Created with Sketch.</desc>

 <g>
  <title>background</title>
  <rect fill="none" id="canvas_background" height="382" width="382" y="-1" x="-1"/>
 </g>
 <g>
  <title>Layer 1</title>
  <path fill-rule="nonzero" fill="#3B99FC" id="WalletConnect" d="m103.209778,135.123738c47.933,-46.93041 125.64775,-46.93041 173.58075,0l5.76881,5.64814c2.39665,2.34652 2.39665,6.15099 0,8.49751l-19.73396,19.32119c-1.19832,1.17326 -3.14119,1.17326 -4.33952,0l-7.93857,-7.77252c-33.43926,-32.73983 -87.65501,-32.73983 -121.09427,0l-8.50155,8.32373c-1.19833,1.17326 -3.1412,1.17326 -4.33952,0l-19.73396,-19.3212c-2.39665,-2.34652 -2.39665,-6.15098 0,-8.4975l6.33179,-6.19935zm214.39244,39.95827l17.56327,17.19595c2.39663,2.34651 2.39665,6.15095 0.00003,8.49748l-79.19397,77.53871c-2.39663,2.34654 -6.28237,2.34656 -8.67904,0.00006c-0.00001,-0.00001 -0.00002,-0.00002 -0.00003,-0.00003l-56.20706,-55.03148c-0.59916,-0.58663 -1.5706,-0.58663 -2.16976,0c0,0 -0.00001,0.00001 -0.00001,0.00001l-56.20586,55.03144c-2.39663,2.34654 -6.28237,2.34658 -8.67904,0.00008c-0.00002,-0.00001 -0.00003,-0.00002 -0.00004,-0.00004l-79.19618,-77.53974c-2.39664,-2.34652 -2.39664,-6.15098 0,-8.4975l17.5633,-17.19593c2.39665,-2.34652 6.28239,-2.34652 8.67904,0l56.20787,55.03225c0.59917,0.58663 1.5706,0.58663 2.16976,0c0.00001,-0.00001 0.00002,-0.00002 0.00003,-0.00003l56.20506,-55.03222c2.39659,-2.34658 6.28233,-2.34666 8.67904,-0.0002c0.00003,0.00004 0.00006,0.00007 0.0001,0.0001l56.2078,55.03232c0.59916,0.58663 1.5706,0.58663 2.16976,0l56.2069,-55.03123c2.39664,-2.34652 6.28238,-2.34652 8.67903,0z"/>
 </g>
</svg>