<?xml version="1.0" standalone="no"?><!DOCTYPE svg PUBLIC "-//W3C//DTD SVG 1.1//EN" "http://www.w3.org/Graphics/SVG/1.1/DTD/svg11.dtd"><svg t="1540265924995" class="icon" style="" viewBox="0 0 1024 1024" version="1.1" xmlns="http://www.w3.org/2000/svg" p-id="7750" xmlns:xlink="http://www.w3.org/1999/xlink" width="200" height="200"><defs><style type="text/css"></style></defs><path d="M173.7216 529.9712a374.3232 374.3232 0 0 1 73.5232-223.1296A342.1696 342.1696 0 0 0 546.9184 906.24a376.7808 376.7808 0 0 1-373.1968-376.2688z" fill="#CCD0D9" p-id="7751"></path><path d="M466.5856 233.6256A307.8656 307.8656 0 1 0 737.28 774.144 341.9648 341.9648 0 0 0 466.5856 233.6256z" fill="#CCD0D9" p-id="7752"></path><path d="M550.0928 758.0672a45.6192 45.6192 0 0 1-45.6192-45.6192V552.96a45.6192 45.6192 0 0 1 91.2384 0v159.6928a45.6192 45.6192 0 0 1-45.6192 45.4144z" fill="#848E9C" p-id="7753"></path><path d="M538.7264 381.696m-57.0368 0a57.0368 57.0368 0 1 0 114.0736 0 57.0368 57.0368 0 1 0-114.0736 0Z" fill="#848E9C" p-id="7754"></path><path d="M550.0928 153.6a376.32 376.32 0 0 0-3.2256 752.64h3.2256a376.3712 376.3712 0 0 0 0-752.64zM737.28 774.144a307.7632 307.7632 0 1 1 120.6272-244.1728A306.2784 306.2784 0 0 1 737.28 774.144z" fill="#848E9C" p-id="7755"></path></svg>