<?xml version="1.0" encoding="UTF-8"?>
<svg width="10px" height="12px" viewBox="0 0 10 12" version="1.1" xmlns="http://www.w3.org/2000/svg" xmlns:xlink="http://www.w3.org/1999/xlink">
    <!-- Generator: Sketch 54.1 (76490) - https://sketchapp.com -->
    <title>形状结合</title>
    <desc>Created with Sketch.</desc>
    <g id="unlock-new" stroke="none" stroke-width="1" fill="none" fill-rule="evenodd">
        <g id="3-unlock-a-wallet-Ledger-Copy" transform="translate(-687.000000, -568.000000)" fill="#F0B90B" fill-rule="nonzero">
            <g id="推荐-copy" transform="translate(687.000000, 568.000000)">
                <path d="M-1.81188398e-13,-2.22044605e-14 L9.8484375,-2.22044605e-14 L9.8484375,11.078125 L9.84375,11.078125 L4.9234375,8.925 L-1.81188398e-13,11.078125 L-1.81188398e-13,-2.22044605e-14 Z M8.9234375,9.6671875 L8.9234375,0.9234375 L0.9234375,0.9234375 L0.9234375,9.6671875 L4.5515625,8.078125 C4.66875,8.0265625 4.7953125,8 4.921875,8 C5.0484375,8 5.175,8.0265625 5.2921875,8.078125 L8.9234375,9.6671875 Z M3.45,5.3515625 C1.96875,4.209375 2.15,3.5984375 3.990625,3.5203125 C4.2859375,2.60625 4.5890625,2.15 4.896875,2.15 C5.203125,2.15 5.515625,2.596875 5.834375,3.490625 C7.678125,3.5109375 7.8765625,4.1140625 6.4296875,5.303125 C6.7796875,6.4609375 6.7109375,7.0390625 6.225,7.0390625 C5.94375,7.0390625 5.5203125,6.84375 4.95625,6.453125 C4.390625,6.8703125 3.96875,7.0796875 3.6859375,7.0796875 C3.2171875,7.0796875 3.1390625,6.503125 3.45,5.3515625 Z M4.025,4.2875 C3.7765625,4.2984375 3.5890625,4.31875 3.4515625,4.3359375 C3.5546875,4.4390625 3.7046875,4.571875 3.91875,4.7375 C4.165625,4.928125 4.271875,5.246875 4.1921875,5.546875 C4.125,5.790625 4.0859375,5.9796875 4.0625,6.125 C4.178125,6.0578125 4.321875,5.9625 4.4984375,5.83125 C4.634375,5.73125 4.7953125,5.68125 4.95625,5.68125 C5.109375,5.68125 5.2625,5.7265625 5.39375,5.8171875 C5.575,5.94375 5.721875,6.034375 5.8390625,6.1 C5.8125,5.9546875 5.7671875,5.7671875 5.69375,5.5234375 C5.6046875,5.2265625 5.703125,4.903125 5.9421875,4.70625 C6.1515625,4.5359375 6.296875,4.3984375 6.3984375,4.2921875 C6.2609375,4.2734375 6.075,4.2609375 5.828125,4.2578125 C5.5046875,4.2546875 5.21875,4.05 5.1109375,3.746875 C5.0375,3.5375 4.96875,3.375 4.9109375,3.25 C4.85625,3.378125 4.79375,3.5421875 4.725,3.75625 C4.625,4.0625 4.346875,4.275 4.025,4.2875 Z" id="形状结合"></path>
            </g>
        </g>
    </g>
</svg>